<?xml version="1.0" encoding="iso-8859-1"?>
<!-- Generator: Adobe Illustrator 18.1.1, SVG Export Plug-In . SVG Version: 6.00 Build 0)  -->
<svg version="1.1" id="Capa_1" xmlns="http://www.w3.org/2000/svg" xmlns:xlink="http://www.w3.org/1999/xlink" x="0px" y="0px"
	 viewBox="0 0 14.674 14.674" style="enable-background:new 0 0 14.674 14.674;" xml:space="preserve">
<g>
	<g>
		<path style="fill:#090509;" d="M14.619,11.162c-0.034-0.066-0.85-1.617-3.109-2.165c-0.157-0.041-0.319,0.001-0.44,0.105
			c-0.713,0.607-1.698,1.258-2.123,1.323c-2.85-1.393-4.44-4.066-4.5-4.573c-0.035-0.285,0.618-1.286,1.369-2.1
			c0.095-0.103,0.143-0.243,0.13-0.383C5.755,1.172,3.463,0.094,3.366,0.05C3.274,0.008,3.172-0.005,3.074,0.012
			C0.428,0.451,0.03,1.991,0.014,2.055c-0.022,0.09-0.018,0.183,0.01,0.27c3.156,9.792,9.715,11.607,11.872,12.206l0.405,0.117
			l0.154,0.022l0.207-0.045c0.066-0.03,1.624-0.764,2.005-3.158C14.685,11.364,14.667,11.256,14.619,11.162z"/>
	</g>
</g>
<g>
</g>
<g>
</g>
<g>
</g>
<g>
</g>
<g>
</g>
<g>
</g>
<g>
</g>
<g>
</g>
<g>
</g>
<g>
</g>
<g>
</g>
<g>
</g>
<g>
</g>
<g>
</g>
<g>
</g>
</svg>
